# xmcd
#
# Track frame offsets:
#	163
#	16798
#	35799
#	51724
#	73698
#	90971
#	105725
#	124862
#	141482
#	158861
#	174152
#	193224
#	227383
#
# Disc length: 3328 seconds
#
# Revision: 0
# Processed by: cddbd v1.5.2PL0 Copyright (c) Steve Scherf et al.
# Submitted via: audiograbber 1.83.01
#
DISCID=b10cfe0d
DTITLE=Phantom Limb - The Pines
DYEAR=2012
DGENRE=Country/Soul
TTITLE0=The Pines
TTITLE1=Tumbling Down
TTITLE2=Give Me a Reason
TTITLE3=I'll Have Mercy
TTITLE4=It's the Only Way
TTITLE5=Laugh Like You're Mad
TTITLE6=Gravy Train
TTITLE7=Badge of Descension
TTITLE8=Hollow Eyes
TTITLE9=Missy
TTITLE10=Harder than Stone
TTITLE11=High and Dry
TTITLE12=Angel of Death (bonus track)
EXTD=
EXTT0=
EXTT1=
EXTT2=
EXTT3=
EXTT4=
EXTT5=
EXTT6=
EXTT7=
EXTT8=
EXTT9=
EXTT10=
EXTT11=
EXTT12=
PLAYORDER=
